<svg xmlns="http://www.w3.org/2000/svg" xmlns:xlink="http://www.w3.org/1999/xlink" width="24" height="24" viewBox="0 0 24 24"><defs><clipPath id="a"><rect width="24" height="24" fill="#fff"/></clipPath></defs><g clip-path="url(#a)"><path d="M12,0A12,12,0,1,0,24,12,12,12,0,0,0,12,0M5.345,12.828q1.549-2.416,3.09-4.837c.151-.237.261-.259.379.023a11.3,11.3,0,0,1,.727,2.362,3.672,3.672,0,0,1-.7,2.608c-.091.15-.21.152-.35.152-.5,0-.992,0-1.488,0s-.992-.006-1.488,0c-.274,0-.317-.083-.171-.31M19.1,15.057a2.57,2.57,0,0,0-1.241,1.112c-.319.531-.66,1.05-1.016,1.557a2.516,2.516,0,0,1-2.276,1.16c-2.012-.052-4.027-.012-6.04-.016A4.143,4.143,0,0,1,4.366,15.16c-.072-.627-.066-.634.543-.634.979,0,1.958.006,2.938,0,.235,0,.325.043.345.312a1.233,1.233,0,0,0,1.344,1.212c.469,0,.938-.008,1.407,0,.211.006.279-.058.287-.278.04-1.09.048-1.082-1.046-1.095-.267,0-.652.141-.773-.09s.205-.473.359-.686a5.283,5.283,0,0,0,.619-5.256,20.463,20.463,0,0,0-.914-2.123.591.591,0,0,1-.129-.4c.523.137,1.042.248,1.544.412.309.1.356,0,.337-.269a2.727,2.727,0,0,1,.007-.537.707.707,0,0,1,.713-.619c.362.006.729.287.664.644A1.946,1.946,0,0,0,13.62,7.777a6.888,6.888,0,0,1,1.77,2.111,2.684,2.684,0,0,1-.076,3c-.266.4-.584.766-.885,1.142a1.414,1.414,0,0,1-1.444.653c-.3-.057-.364.089-.363.369.005.993,0,.958.979,1.005a1.863,1.863,0,0,0,1.636-.7,2.063,2.063,0,0,1,1.144-.671c.972-.253,1.936-.542,2.9-.834.277-.084.348-.032.377.262a.783.783,0,0,1-.554.94" fill="#fff"/></g></svg>