<svg xmlns="http://www.w3.org/2000/svg" xmlns:xlink="http://www.w3.org/1999/xlink" width="409.136" height="167.655" viewBox="0 0 409.136 167.655"><defs><clipPath id="a"><rect width="409.136" height="167.654" fill="none"/></clipPath></defs><g opacity="0.647" style="mix-blend-mode:color-dodge;isolation:isolate"><g transform="translate(0)" clip-path="url(#a)"><path d="M130.487,158.2c-.224,2.287.5,4.451.74,6.677.109,1.015.664,2.118-.358,2.923s-1.869-.126-2.672-.578c-9.515-5.366-16.646-13.5-22.637-22.961-4.741-7.486-8.279-15.651-11.62-23.931a6.352,6.352,0,0,1-1.56-3.734,5.141,5.141,0,0,1,.1-1.135c.22-.96-.409-1.05-.993-1.22-1.362-2.591-1.755-5.534-2.566-8.318a3.327,3.327,0,0,0-2.767-2.732c-13.93-2.754-27.453-7.26-41.063-11.376a150.129,150.129,0,0,0-26.839-5.081c-3.661-.412-7.333-.672-10.994-1.069A11.953,11.953,0,0,1,1.885,84.1c-.342-.432-.717-.838-1.021-1.3-1.361-2.066-1.173-3.057.984-4.186a129.57,129.57,0,0,1,15.714-6.7c5.387-1.972,10.9-3.644,16.239-5.662,20.267-7.659,41.059-12.8,62.173-16.611a245.805,245.805,0,0,1,34.957-4.08c6.078-.214,10.849-2.778,14.925-7.371a57.555,57.555,0,0,0,7.618-11.474c3.857-7.3,7.97-14.4,13.484-20.4,2.215-2.409,4.5-4.824,7.835-5.391,1.042.186,2.408-.318,2.694,1.483a65.151,65.151,0,0,0,.955,25.184,39.3,39.3,0,0,0,4.778,11.792c3.147,5.06,7.132,8.682,12.924,9.719,4.219.755,8.366,1.971,12.559,2.906q28.017,6.252,56.039,12.476a10.671,10.671,0,0,0,4.89-.322,48.6,48.6,0,0,0,9.5-3.029,3.531,3.531,0,0,1,4.511.859c.919.952,2.038,1.672,3.006,2.575,6.6,6.159,14.615,8.368,22.952,9.733a51.336,51.336,0,0,1,7.512,1.622c6.012,1.942,11.293,1.436,15.235-4.553.39.174.639.434.5.917-.1.105-.14.194-.122.244a.724.724,0,0,1,.233-.335c.548-.278,1.361-.211,1.594-.789.814-2.021,1.912-3.6,3.67-3.609.647-.526.061-.647.319-.478.061.04.011.093-.109.209-1.009.965-1.921,1.438-2.392-.515,4.693-5.63,9.642-10.991,15.506-15.176,12.407-8.855,24.968-17.453,37.752-25.657,4.641-2.978,9.345-5.908,14.686-7.284a15.394,15.394,0,0,1,5.157-.3c-2.094,3.047-3.928,5.983-6.021,8.684a17.3,17.3,0,0,0-3.39,8.093c-.1.6.063,1.342-.568,1.757-.448.092-.879-.282-1.333-.058a9.837,9.837,0,0,1-1.068-.311c-2.5-1.032-2.533-1.032-2.168,1.82.139,1.085-.589,1.622-1.06,2.3-6.56,9.412-13.111,18.832-19.077,28.708-1.56,2.583-3,5.255-4.443,7.919a17.722,17.722,0,0,0-2.358,6.781c-.228-.051-.158-.423-.41-.449.493,3.73-.606,7.4-.344,11.122a30.3,30.3,0,0,1,.746-8.075,18.285,18.285,0,0,1,.291,4.584c-.336.907-.029,1.864-.179,2.786,0,.024.117.1.177.1s.105-.085.158-.133l1.621,14.865c-.361,2.172.321,4.21.686,6.289a2.705,2.705,0,0,1,.177.365c.018.054-.033.135-.052.2a2.63,2.63,0,0,0,.279,2.258c.651,2.906,1.253,5.827,1.964,8.717a43.665,43.665,0,0,0,5.989,14.315,10.368,10.368,0,0,1,.861,1.7,2.627,2.627,0,0,1,.013.823,8.956,8.956,0,0,1-5.163-2.015c-3.735-3.134-6.275-7.44-9.2-11.325a217.634,217.634,0,0,1-22.41-36.572c-.9-1.874-1.663-3.831-2.47-5.757-1.08-2.581-2.559-4.2-5.409-3.468a2.831,2.831,0,0,1-1.341-.114c-1.188-.385-2.463-.144-3.214-.556.1,0,.4.171.006.793-1.165.822-2.477.584-3.736.58-21.03-.058-41.869,2.361-62.6,5.885-10.035,1.706-19.752,5.059-29.675,7.388a183.076,183.076,0,0,1-27.7,3.906c-9.215.721-18.444,1.134-27.66,1.81-4.044.3-8.114.435-12.156.489-9.77.131-19.528.909-29.306.61-3.466-.106-3.681.156-4.571,3.906a88.293,88.293,0,0,0-2.365,14.42c-1.221,8.658-.88,17.344-.474,26.039.131,2.806.587,5.6.306,8.429" transform="translate(0 -0.471)" fill="#696969"/><path d="M288.1,210.267c.125-6.159,1.6-12.034,3.167-17.9.363-1.356,1.278-1.123,2.154-1.141,7.965-.157,15.931-.271,23.9-.475,19.909-.51,39.794-1.6,59.624-3.587,10.04-1.008,19.838-3.638,29.551-6.47,14.5-4.228,29.337-6,44.205-7.648a342.259,342.259,0,0,1,36.45-2.06,8.669,8.669,0,0,0,1.533-.278,4.063,4.063,0,0,1,3.013-.154,17.243,17.243,0,0,0,2.014-.106c2.254-.372,3.8.641,4.7,2.823,6.775,16.384,16.111,30.995,26.456,44.908,2.514,3.382,5.074,6.724,7.614,10.084a29.883,29.883,0,0,1-11.749-7.413c-6.434-6.627-11.694-14.384-17.261-21.837-4.673-6.254-9.142-12.676-13.273-19.369-2.171-3.517-5.011-4.463-8.887-3.668-9.551,1.96-19.159,3.607-28.76,5.27-12.046,2.086-24.03,4.534-36.016,6.979a12.937,12.937,0,0,0-10.609,13.046c.044,3.95-1.172,4.786-4.742,4.178a21.2,21.2,0,0,1-8.626-4.018c-5.354-3.812-10.937-4.009-17-2.687-15.4,3.357-30.821,6.661-46.382,9.094a188.292,188.292,0,0,1-21.932,2.034c-3.824.146-7.646.342-11.474.358a2.676,2.676,0,0,0-1.7.532c-2.012.181-4.05.732-5.962-.5" transform="translate(-158.014 -86.997)" fill="#adc9d8"/><path d="M95.042,203.162l1.188,3.991c-6.736-1.506-13.489-2.928-20.2-4.535a327.5,327.5,0,0,1-34.109-9.668,64.138,64.138,0,0,1-12.157-5.711c-1.647-1.015-3.376-2.008-2.984-4.6,1.883-2.159,4.513-1.824,6.5-2.413-2.1.357-4.71-.164-6.968,1.438-8.75-.266-15.8-4.637-22.129-10.752,7.561,1.427,15.233,1.78,22.845,2.71,10.89,1.331,21.353,4.546,31.832,7.777,10.186,3.14,20.388,6.226,30.857,8.1,1.081.193,1.477.746,1.768,1.809a74.548,74.548,0,0,0,2.983,9.955,1.9,1.9,0,0,1,.582,1.9" transform="translate(-2.29 -87.29)" fill="#adc9d8"/><path d="M286.874,251.841c1.981.25,4.044-.635,5.962.5a157.489,157.489,0,0,0,1.941,34.309c.167,1,.7,2.112-.329,2.923s-1.85-.143-2.669-.59c-1.53-.835-3.01-1.78-4.51-2.679-1.386-3.614-.917-7.5-1.185-11.237-.393-5.488-.167-11.035-.069-16.555a25.4,25.4,0,0,1,.859-6.67" transform="translate(-156.783 -128.571)" fill="#484748"/><path d="M739.713,134.567c1.908,2.422,2.032-.587,3.153-1.37.719,1.871-.387,3.086-1.438,3.028-1.657-.091-1.771.66-2.047,2a2.061,2.061,0,0,1-2.9,1.7l-.46-1a27.32,27.32,0,0,1,3.692-4.355" transform="translate(-403.678 -68.026)" fill="#696969"/><path d="M52.606,190.86c.018-.373-.773-.745-.349-.875,3.075-.946,6.192-1.623,9.37-.445a41.252,41.252,0,0,0-8.55,2.3l-.471-.975" transform="translate(-28.592 -96.481)" fill="#6ba2b8"/><path d="M813.069,172.155c-.016,3.149-.805,6.227-.675,9.391-.777-4.593.475-9.092.508-13.652q.087.832.175,1.664,0,1.3-.008,2.6" transform="translate(-445.426 -85.746)" fill="#696969"/><path d="M819.055,228.273c-.754-2.029-1.463-4.064-.686-6.289q.343,3.144.686,6.289" transform="translate(-448.657 -113.371)" fill="#696969"/><path d="M389.795,1.934C389.25.685,387.82,1.327,387.1.451c1.212-.177,2.972-1.519,2.694,1.483" transform="translate(-212.309 0)" fill="#00466d"/><path d="M814.5,188.728a1.51,1.51,0,0,1-.121.442c-.121.184-.379.35-.364-.046.04-1.056-.357-2.175.33-3.151l.156,2.755" transform="translate(-446.412 -94.98)" fill="#696969"/><path d="M820.282,238.257c-.694-.665-1.135-1.368-.279-2.258l.279,2.258" transform="translate(-449.48 -120.529)" fill="#696969"/><path d="M167.369,172.951a56.015,56.015,0,0,1-.128-23.056,61.467,61.467,0,0,1,.128,23.056" transform="translate(-91.102 -76.554)" fill="#484748"/><path d="M182.364,148.748c1.5,8.1,1.128,15.673.335,23.483-1.948-3.153-2.1-14.5-.335-23.483" transform="translate(-99.344 -75.968)" fill="#484748"/><path d="M189.614,172.686a54.646,54.646,0,0,1-.24-22.578c1.43,1.922,1.7,15.548.24,22.578" transform="translate(-103.283 -76.663)" fill="#484748"/><path d="M175,172.938a69.9,69.9,0,0,1,.027-23.125c1.174,7.708,1.735,15.416-.027,23.125" transform="translate(-95.46 -76.512)" fill="#484748"/><path d="M197.018,150.861c.974,7.368,1.385,14.751.063,22.128a64.342,64.342,0,0,1-.063-22.128" transform="translate(-107.548 -77.047)" fill="#484748"/><path d="M204.406,151.727A82.418,82.418,0,0,1,204,173.4a78.5,78.5,0,0,1-.459-21.673.525.525,0,0,1,.863,0" transform="translate(-111.345 -77.374)" fill="#484748"/><path d="M60.124,158.152a2.916,2.916,0,0,1,2.782-3.132,2.966,2.966,0,0,1,2.742,3.209c-.056,1.873-1.065,2.976-2.683,2.943a2.644,2.644,0,0,1-2.841-3.019" transform="translate(-32.974 -79.171)" fill="#0c1921"/><path d="M734.258,170.353l-3.013.153-.879-.159c1.3-.251,2.6-.776,3.891.005" transform="translate(-400.577 -86.792)" fill="#696969"/><path d="M736.24,146.473c-.058.833.13,1.508-.516,2.146-.471-.974.136-1.41.516-2.146" transform="translate(-403.421 -74.806)" fill="#696969"/><path d="M205.047,150.713h-.863c.085-.461-.251-1.27.533-1.192.459.045.312.75.33,1.191" transform="translate(-111.986 -76.361)" fill="#484748"/></g></g></svg>